<svg id="american-express" xmlns="http://www.w3.org/2000/svg" width="29.738" height="20.509" viewBox="0 0 29.738 20.509">
  <path id="Path_390" data-name="Path 390" d="M29.738,98.2a1.758,1.758,0,0,1-1.758,1.758H1.758A1.758,1.758,0,0,1,0,98.2V81.209a1.758,1.758,0,0,1,1.758-1.758H27.981a1.758,1.758,0,0,1,1.758,1.758V98.2Z" transform="translate(0 -79.451)" fill="#306fc5"/>
  <path id="Path_391" data-name="Path 391" d="M1.25,98.2V81.209a1.758,1.758,0,0,1,1.758-1.758H1.758A1.758,1.758,0,0,0,0,81.209V98.2A1.758,1.758,0,0,0,1.758,99.96h1.25A1.758,1.758,0,0,1,1.25,98.2Z" transform="translate(0 -79.451)" fill="#202121" opacity="0.15"/>
  <g id="Group_8648" data-name="Group 8648" transform="translate(2.134 6.026)">
    <path id="Path_392" data-name="Path 392" d="M74.59,202.409h.889l-.444-1.131Z" transform="translate(-72.392 -200.228)" fill="#fff"/>
    <path id="Path_393" data-name="Path 393" d="M155.946,286.107v.525h1.494v.566h-1.494v.606H157.6l.767-.848-.727-.848Z" transform="translate(-149.023 -280.13)" fill="#fff"/>
    <path id="Path_394" data-name="Path 394" d="M349.038,201.278l-.485,1.131h.929Z" transform="translate(-330.442 -200.228)" fill="#fff"/>
    <path id="Path_395" data-name="Path 395" d="M213.318,283.543v-2.3l-1.05,1.131Z" transform="translate(-202.073 -275.546)" fill="#fff"/>
    <path id="Path_396" data-name="Path 396" d="M243.46,286.471a.408.408,0,0,0-.445-.364h-.848v.727h.889C243.3,286.834,243.46,286.713,243.46,286.471Z" transform="translate(-230.236 -280.13)" fill="#fff"/>
    <path id="Path_397" data-name="Path 397" d="M294.752,287.411a.315.315,0,0,0,.121-.283.225.225,0,0,0-.121-.283.785.785,0,0,0-.323-.04h-.808v.646h.808A.786.786,0,0,0,294.752,287.411Z" transform="translate(-278.701 -280.787)" fill="#fff"/>
    <path id="Path_398" data-name="Path 398" d="M58.614,183.2v.485l-.242-.485h-1.9v.485l-.242-.485H53.647a2.459,2.459,0,0,0-1.131.242V183.2H50.7v.242a1.165,1.165,0,0,0-.767-.242h-6.5l-.444,1.01-.444-1.01h-2.06v.485l-.2-.485H38.5l-.808,1.9-.929,2.06-.017.04h2.1l.015-.04.242-.606h.525l.242.646h2.342v-.485l.2.485h1.171l.2-.485v.485h5.614v-1.05h.081c.081,0,.081,0,.081.121v.888h2.908v-.242a2.416,2.416,0,0,0,1.09.242h1.212l.242-.646h.565l.242.646H58.17v-.606l.364.606h1.9V183.2H58.614Zm-13.691,3.393h-.646v-2.221l-.04.093h0l-.94,2.13h-.6l-.969-2.221v2.221H40.36l-.283-.606H38.7l-.283.606h-.71l1.195-2.827h1.01l1.131,2.706v-2.706h1.07l.019.04h0l.51,1.109.366.831.013-.042.808-1.939h1.091v2.827Zm2.787-2.221H46.135v.525H47.67v.565H46.135v.566H47.71v.606H45.448v-2.867H47.71v.606Zm2.881,1.041,0,0a.463.463,0,0,1,.039.048.777.777,0,0,1,.143.473v.011s0,0,0,.006,0,0,0,0c0,.022,0,.045,0,.07v.565h-.606v-.323a.961.961,0,0,0-.121-.565.367.367,0,0,0-.119-.081.806.806,0,0,0-.366-.04h-.727v1.01h-.686v-2.827h1.535a1.548,1.548,0,0,1,.808.121.682.682,0,0,1,.322.628.8.8,0,0,1-.484.745A.541.541,0,0,1,50.591,185.411Zm1.36,1.18h-.687v-2.827h.687Zm7.876,0h-.889l-1.292-2.141v1.777l0,0v.37h-.682v0h-.687l-.242-.606H54.616l-.242.646h-.767a1.214,1.214,0,0,1-1.333-1.413,1.656,1.656,0,0,1,.363-1.131,1.272,1.272,0,0,1,1.01-.323h.646v.606h-.646a.744.744,0,0,0-.525.162.949.949,0,0,0-.2.646.879.879,0,0,0,.2.687.644.644,0,0,0,.485.162h.283l.929-2.221h1.01l1.131,2.706V183.8h1.01l1.171,1.979V183.8h.687v2.787h0Z" transform="translate(-36.748 -183.198)" fill="#fff"/>
    <path id="Path_399" data-name="Path 399" d="M246.119,203.936a.217.217,0,0,0,.032-.043.436.436,0,0,0,.056-.3.222.222,0,0,0-.006-.037s0-.006,0-.009h0a.227.227,0,0,0-.123-.137.791.791,0,0,0-.323-.04h-.808v.646h.808a.787.787,0,0,0,.323-.04.153.153,0,0,0,.033-.024h0Z" transform="translate(-232.852 -202.193)" fill="#fff"/>
    <path id="Path_400" data-name="Path 400" d="M153.525,267.258a1.547,1.547,0,0,0-.2-.767v-1.817h0v-.121h-1.945a1.149,1.149,0,0,0-.557.242v-.242h-1.858a1.283,1.283,0,0,0-.808.242v-.242h-3.312v.242a1.562,1.562,0,0,0-.889-.242h-2.181v.242a1.534,1.534,0,0,0-.929-.242H138.42l-.566.606-.525-.606H133.7v4.079h3.554l.584-.584.506.584H140.6V267.7h.2a2.454,2.454,0,0,0,.929-.121v1.091h1.817v-1.05h.081c.121,0,.121,0,.121.121v.929h5.492a1.583,1.583,0,0,0,.929-.242v.242h1.737a1.814,1.814,0,0,0,.969-.2,1.356,1.356,0,0,0,.641-1.089c0-.014,0-.028,0-.042l0,0C153.524,267.31,153.525,267.285,153.525,267.258Zm-12.722-.242H140v1.05h-1.327l-.773-.889,0,0-.038-.043-.889.929h-2.585v-2.827h2.625l.717.786.151.165.02-.021.848-.929h2.14a1.048,1.048,0,0,1,1.057.525,1.142,1.142,0,0,1,.034.282C141.974,266.854,141.409,267.016,140.8,267.016Zm4.039-.04a.917.917,0,0,1,.121.525v.565h-.686V267.7a.9.9,0,0,0-.121-.566c-.081-.121-.242-.121-.484-.121h-.727v1.05h-.687V265.2h1.535a1.629,1.629,0,0,1,.808.121.715.715,0,0,1,.363.646.8.8,0,0,1-.485.767A.688.688,0,0,1,144.842,266.975Zm2.787-1.171h-1.575v.525h1.535v.566h-1.535v.565h1.575v.606h-2.262V265.2h2.262Zm1.7,2.262h-1.292v-.606h1.292a.341.341,0,0,0,.283-.081.293.293,0,0,0,0-.4.343.343,0,0,0-.243-.081c-.646-.04-1.414,0-1.414-.888,0-.4.242-.848.969-.848h1.333v.686H149a.6.6,0,0,0-.283.04c-.081.04-.081.121-.081.2,0,.121.081.162.161.2a.512.512,0,0,0,.242.04h.364a1.028,1.028,0,0,1,.767.242.836.836,0,0,1,.2.606C150.375,267.783,150.011,268.066,149.325,268.066Zm3.473-.283a1.177,1.177,0,0,1-.848.283h-1.292v-.606h1.292a.341.341,0,0,0,.283-.081.293.293,0,0,0,0-.4.341.341,0,0,0-.242-.081c-.646-.04-1.414,0-1.414-.888a.825.825,0,0,1,.761-.834,1.506,1.506,0,0,1,.208-.015h1.333v.686h-1.252a.6.6,0,0,0-.283.04.308.308,0,0,0-.081.2c0,.121.04.162.162.2a.511.511,0,0,0,.242.04h.363a1.262,1.262,0,0,1,.432.065.87.87,0,0,1,.565.639.907.907,0,0,1,.012.145A.821.821,0,0,1,152.8,267.783Z" transform="translate(-128.064 -259.827)" fill="#fff"/>
  </g>
</svg>
