<svg xmlns="http://www.w3.org/2000/svg" width="14.588" height="20.25" viewBox="0 0 14.588 20.25">
  <g id="Group_1468" data-name="Group 1468" transform="translate(-412.706 -288.155)">
    <path id="Path_615" data-name="Path 615" d="M426.272,294.956a.453.453,0,0,0-.161-.31.467.467,0,0,0-.336-.106.46.46,0,0,0-.417.5l1.015,11.5a.874.874,0,0,1-.871.952h-11a.874.874,0,0,1-.872-.952l1.015-11.5a.871.871,0,0,1,.872-.8h.9v1.375a.458.458,0,1,0,.916,0v-3.875a2.667,2.667,0,0,1,5.334,0v1.584h-4.25a.458.458,0,1,0,0,.916h4.25v1.375a.458.458,0,1,0,.916,0v-1.375h.9a.458.458,0,0,0,0-.916h-.9v-1.584a3.583,3.583,0,0,0-7.166,0v1.584h-.9a1.781,1.781,0,0,0-1.785,1.634l-1.015,11.5A1.793,1.793,0,0,0,414.5,308.4h11a1.793,1.793,0,0,0,1.785-1.949Z" fill="#333"/>
    <path id="Path_616" data-name="Path 616" d="M418.083,303.613h-2.416a.458.458,0,1,0,0,.917h2.416a.458.458,0,1,0,0-.917Z" fill="#333"/>
    <path id="Path_617" data-name="Path 617" d="M418.083,305.28h-2.416a.458.458,0,1,0,0,.917h2.416a.458.458,0,1,0,0-.917Z" fill="#333"/>
  </g>
</svg>
