<svg xmlns="http://www.w3.org/2000/svg" width="18" height="19.211" viewBox="0 0 18 19.211">
  <g id="Group_1472" data-name="Group 1472" transform="translate(-459.327 -299.197)">
    <path id="Path_627" data-name="Path 627" d="M469.4,315.53a.474.474,0,0,1,.148.344.46.46,0,0,1-.148.355.479.479,0,0,1-.343.136h-9.244a.471.471,0,0,1-.344-.148.466.466,0,0,1-.147-.343V299.688a.5.5,0,0,1,.491-.491h9.244a.5.5,0,0,1,.491.491.46.46,0,0,1-.148.355.488.488,0,0,1-.343.136h-8.706v6.841h7.6a.5.5,0,0,1,.491.491.456.456,0,0,1-.147.355.492.492,0,0,1-.344.136h-7.6v7.381h8.706A.466.466,0,0,1,469.4,315.53Z" fill="#333"/>
    <path id="Path_628" data-name="Path 628" d="M467.248,302.075a.475.475,0,0,1-.148-.344.459.459,0,0,1,.148-.355.481.481,0,0,1,.343-.136h9.245a.471.471,0,0,1,.343.148.463.463,0,0,1,.148.343v16.186a.467.467,0,0,1-.148.344.473.473,0,0,1-.343.147h-9.245a.5.5,0,0,1-.491-.491.459.459,0,0,1,.148-.355.49.49,0,0,1,.343-.136H476.3v-6.841h-7.6a.467.467,0,0,1-.343-.148.474.474,0,0,1-.148-.343.46.46,0,0,1,.148-.356.491.491,0,0,1,.343-.135h7.6v-7.381h-8.706A.472.472,0,0,1,467.248,302.075Z" fill="#333"/>
  </g>
</svg>
