<svg xmlns="http://www.w3.org/2000/svg" width="23.681" height="23.681" viewBox="0 0 23.681 23.681">
  <g id="four" transform="translate(0.65 0.65)">
    <g id="Group_1398" data-name="Group 1398">
      <path id="Path_23246" data-name="Path 23246" d="M9.164,0H.469A.469.469,0,0,0,0,.469v8.7a.469.469,0,0,0,.469.469H9.164a.469.469,0,0,0,.469-.469V.469A.469.469,0,0,0,9.164,0Z" fill="none" stroke="#000" stroke-width="1.3"/>
      <path id="Path_23247" data-name="Path 23247" d="M63.562,0h-8.7A.469.469,0,0,0,54.4.469v8.7a.469.469,0,0,0,.469.469h8.7a.469.469,0,0,0,.469-.469V.469A.469.469,0,0,0,63.562,0Z" transform="translate(-41.649)" fill="none" stroke="#000" stroke-width="1.3"/>
      <path id="Path_23248" data-name="Path 23248" d="M9.164,54.4H.469A.469.469,0,0,0,0,54.867v8.7a.469.469,0,0,0,.469.469H9.164a.469.469,0,0,0,.469-.469v-8.7A.469.469,0,0,0,9.164,54.4Z" transform="translate(0 -41.649)" fill="none" stroke="#000" stroke-width="1.3"/>
      <path id="Path_23249" data-name="Path 23249" d="M63.562,54.4h-8.7a.469.469,0,0,0-.469.469v8.7a.469.469,0,0,0,.469.469h8.7a.469.469,0,0,0,.469-.469v-8.7A.469.469,0,0,0,63.562,54.4Z" transform="translate(-41.649 -41.649)" fill="none" stroke="#000" stroke-width="1.3"/>
    </g>
  </g>
</svg>
