<svg xmlns="http://www.w3.org/2000/svg" width="19.999" height="20" viewBox="0 0 19.999 20">
  <g id="Group_8657" data-name="Group 8657" transform="translate(4.773 -137.51)">
    <path id="Path_23270" data-name="Path 23270" d="M6.735,150.245a6.248,6.248,0,0,0-.7-.793q-.385-.367-.769-.667t-.7-.578a2.846,2.846,0,0,1-.516-.576,1.1,1.1,0,0,1-.2-.613,1.348,1.348,0,0,1,.277-.812,4.736,4.736,0,0,1,.673-.733c.264-.237.528-.494.793-.775a3.511,3.511,0,0,0,.673-1.112,4.213,4.213,0,0,0,.277-1.58,4.634,4.634,0,0,0-.469-2.031,3.6,3.6,0,0,0-1.323-1.515H6.368l1.622-.95H2.738a10.727,10.727,0,0,0-2.247.241,5.09,5.09,0,0,0-2.812,1.7,4.494,4.494,0,0,0-1.142,3.011,3.849,3.849,0,0,0,1.28,2.956A4.378,4.378,0,0,0,.888,146.6a6.9,6.9,0,0,0,.841-.06,2.62,2.62,0,0,1-.084.258l-.1.259a1.318,1.318,0,0,0-.06.234,1.643,1.643,0,0,0-.024.282,3.071,3.071,0,0,0,.769,1.791,14,14,0,0,0-1.8.163,13.634,13.634,0,0,0-1.862.433,5.763,5.763,0,0,0-1.743.852,3.672,3.672,0,0,0-1.154,1.329,3.682,3.682,0,0,0-.445,1.623,2.973,2.973,0,0,0,.361,1.46,3.236,3.236,0,0,0,.925,1.069,5.55,5.55,0,0,0,1.3.7,7.638,7.638,0,0,0,1.466.4,8.818,8.818,0,0,0,1.437.12,7.484,7.484,0,0,0,5.047-1.574,4.394,4.394,0,0,0,1.683-3.39,4,4,0,0,0-.2-1.28,3.582,3.582,0,0,0-.516-1.021ZM2.1,145.876a2.335,2.335,0,0,1-1.166-.312A3.1,3.1,0,0,1,0,144.752a5.773,5.773,0,0,1-.674-1.124,6.137,6.137,0,0,1-.426-1.25,5.458,5.458,0,0,1-.139-1.19,3.248,3.248,0,0,1,.613-1.983,2.027,2.027,0,0,1,1.731-.829,2.3,2.3,0,0,1,1.436.493,3.422,3.422,0,0,1,1.01,1.25,7.9,7.9,0,0,1,.565,1.568,6.471,6.471,0,0,1,.2,1.533,3.235,3.235,0,0,1-.523,1.929,1.937,1.937,0,0,1-1.688.727ZM5.425,154.9a2.369,2.369,0,0,1-.9.884,4.55,4.55,0,0,1-1.208.468,5.866,5.866,0,0,1-1.352.151,6.575,6.575,0,0,1-1.526-.18A6.079,6.079,0,0,1-1,155.677a3.021,3.021,0,0,1-1.118-1.01,2.581,2.581,0,0,1-.426-1.46,2.538,2.538,0,0,1,.324-1.286,2.649,2.649,0,0,1,.829-.9,4.7,4.7,0,0,1,1.178-.553,7.456,7.456,0,0,1,1.3-.3,9.566,9.566,0,0,1,1.274-.084,5.84,5.84,0,0,1,.6.024q.072.048.367.253c.2.136.329.228.4.276s.193.141.373.277.309.238.384.306.187.171.331.307a2.244,2.244,0,0,1,.318.354l.253.366a1.516,1.516,0,0,1,.21.415c.04.132.078.277.114.433a2.157,2.157,0,0,1,.054.487,2.567,2.567,0,0,1-.33,1.321Zm0,0" fill="#252b2e"/>
    <path id="Path_23271" data-name="Path 23271" d="M12.149,140.588V137.51H10.611v3.078H7.534v1.537h3.077V145.2h1.538v-3.078h3.077v-1.537Zm0,0" fill="#252b2e"/>
  </g>
</svg>
