<svg xmlns="http://www.w3.org/2000/svg" width="16.002" height="16" viewBox="0 0 16.002 16">
  <path id="Path_633" data-name="Path 633" d="M510.061,278.082a3.532,3.532,0,0,0-1.382,1.574.464.464,0,0,0,.847.379,2.606,2.606,0,0,1,1.02-1.162.464.464,0,1,0-.486-.791ZM520.2,291.008a1.617,1.617,0,0,1-1.149-.474l-4.136-4.136a6.11,6.11,0,1,1,.783-.53l4.009,4.009a.7.7,0,1,0,.985-.984l-2.8-2.8a.464.464,0,0,1,.657-.656l2.8,2.8a1.626,1.626,0,0,1-1.148,2.772Zm-8.286-4.746a5.163,5.163,0,1,0-5.162-5.163,5.169,5.169,0,0,0,5.162,5.163Zm0,0" transform="translate(-505.82 -275.008)" fill="#333"/>
</svg>
