<svg xmlns="http://www.w3.org/2000/svg" width="22.143" height="15.5" viewBox="0 0 22.143 15.5">
  <g id="Group_1465" data-name="Group 1465" transform="translate(-181 -183.666)">
    <path id="Path_12" data-name="Path 12" d="M196.915,190.743H181.692c-.382,0-.692.458-.692,1.022s.31,1.022.692,1.022h15.223c.382,0,.692-.457.692-1.022S197.3,190.743,196.915,190.743Z" transform="translate(0 -0.349)" fill="#333"/>
    <path id="Path_13" data-name="Path 13" d="M181.923,185.71h20.3a1.027,1.027,0,0,0,0-2.044h-20.3a1.027,1.027,0,0,0,0,2.044Z" fill="#333"/>
    <path id="Path_14" data-name="Path 14" d="M202.22,197.82h-20.3a1.027,1.027,0,0,0,0,2.044h20.3a1.027,1.027,0,0,0,0-2.044Z" transform="translate(0 -0.698)" fill="#333"/>
  </g>
</svg>
