<svg xmlns="http://www.w3.org/2000/svg" width="15.056" height="16" viewBox="0 0 15.056 16">
  <g id="Group_1478" data-name="Group 1478" transform="translate(-558.357 -297.802)">
    <path id="Path_634" data-name="Path 634" d="M572.958,302.476a.455.455,0,0,0,.455-.455V300.4a2.6,2.6,0,0,0-2.6-2.6h-9.859a2.6,2.6,0,0,0-2.6,2.6v6.883a2.6,2.6,0,0,0,2.6,2.6h3.982v3.466a.455.455,0,0,0,.777.322l3.788-3.787h1.312a2.6,2.6,0,0,0,2.6-2.6v-1.622a.455.455,0,1,0-.91,0v1.622a1.69,1.69,0,0,1-1.688,1.688h-1.5a.459.459,0,0,0-.322.133l-3.144,3.145v-2.822a.455.455,0,0,0-.455-.455h-4.438a1.689,1.689,0,0,1-1.688-1.688V300.4a1.689,1.689,0,0,1,1.688-1.687h9.859A1.689,1.689,0,0,1,572.5,300.4v1.622A.455.455,0,0,0,572.958,302.476Z" fill="#333"/>
    <path id="Path_635" data-name="Path 635" d="M570.885,301.529h-6.8a.455.455,0,0,0,0,.91h6.8a.455.455,0,0,0,0-.91Z" transform="translate(-1.055 -0.745)" fill="#333"/>
    <path id="Path_636" data-name="Path 636" d="M571.34,305.056a.455.455,0,0,0-.455-.455h-6.8a.455.455,0,0,0,0,.91h6.8A.455.455,0,0,0,571.34,305.056Z" transform="translate(-1.055 -1.36)" fill="#333"/>
    <path id="Path_637" data-name="Path 637" d="M564.089,307.672a.455.455,0,0,0,0,.91h3.042a.455.455,0,0,0,0-.91Z" transform="translate(-1.055 -1.974)" fill="#333"/>
    <path id="Path_638" data-name="Path 638" d="M576.494,304.782a.455.455,0,1,0,.455.455A.456.456,0,0,0,576.494,304.782Z" transform="translate(-3.536 -1.396)" fill="#333"/>
  </g>
</svg>
