<svg xmlns="http://www.w3.org/2000/svg" width="20.004" height="20" viewBox="0 0 20.004 20">
  <g id="Group_1474" data-name="Group 1474" transform="translate(-487.999 -278.675)">
    <path id="Path_631" data-name="Path 631" d="M506.559,289.5a.452.452,0,0,0-.452.453v6.955a.866.866,0,0,1-.864.864h-6.791v-5.062a.452.452,0,1,0-.9,0v5.062h-2.428v-5.432a.865.865,0,0,1,.864-.864h4.033a.865.865,0,0,1,.864.864v4.238a.453.453,0,0,0,.906,0v-4.238a1.772,1.772,0,0,0-1.77-1.77h-4.033a1.772,1.772,0,0,0-1.77,1.77v5.432h-3.457a.866.866,0,0,1-.864-.864v-6.955a.452.452,0,1,0-.9,0v6.955a1.772,1.772,0,0,0,1.769,1.769h14.487a1.772,1.772,0,0,0,1.769-1.769v-6.955A.453.453,0,0,0,506.559,289.5Z" fill="#333"/>
    <path id="Path_632" data-name="Path 632" d="M507.547,285.655a.452.452,0,0,0-.452.453,1.934,1.934,0,0,1-3.869,0,.452.452,0,1,0-.9,0,1.935,1.935,0,0,1-3.869,0,.452.452,0,1,0-.9,0,1.934,1.934,0,1,1-3.868-.016.453.453,0,1,0-.906,0,1.935,1.935,0,1,1-3.869.016V284.16l1.985-4.58h14.222l1.746,4.033H490.592a.452.452,0,1,0,0,.9c4.416,0,7.69,0,10.116,0,7.03.005,7.025,0,7.115-.1a.466.466,0,0,0,.174-.3c.024-.111.024-.111-.911-2.263-.308-.706-.717-1.649-1.264-2.91a.454.454,0,0,0-.415-.272H490.592a.451.451,0,0,0-.415.272l-2.144,4.948c-.035.076-.035.076-.034,1.051v1.162a2.839,2.839,0,0,0,5.226,1.536,2.8,2.8,0,0,0,2.386,1.3h0a2.839,2.839,0,0,1,4.773,0,2.8,2.8,0,0,0,2.387-1.3A2.839,2.839,0,0,0,508,286.108.452.452,0,0,0,507.547,285.655Z" fill="#333"/>
  </g>
</svg>
