<svg xmlns="http://www.w3.org/2000/svg" width="19.996" height="20" viewBox="0 0 19.996 20">
  <g id="Group_8656" data-name="Group 8656" transform="translate(413.663 -26.499)">
    <path id="Path_23267" data-name="Path 23267" d="M-393.718,32.379a7.267,7.267,0,0,0-.465-2.426,4.865,4.865,0,0,0-1.156-1.774,4.921,4.921,0,0,0-1.77-1.152,7.308,7.308,0,0,0-2.426-.465c-1.071-.051-1.411-.063-4.126-.063s-3.055.012-4.122.059a7.312,7.312,0,0,0-2.426.465,4.878,4.878,0,0,0-1.774,1.156,4.936,4.936,0,0,0-1.153,1.77,7.316,7.316,0,0,0-.464,2.426c-.051,1.071-.063,1.411-.063,4.126s.012,3.055.059,4.122a7.261,7.261,0,0,0,.465,2.426,4.93,4.93,0,0,0,1.156,1.774,4.923,4.923,0,0,0,1.77,1.153,7.334,7.334,0,0,0,2.426.465c1.067.047,1.407.058,4.122.058s3.055-.011,4.122-.058a7.312,7.312,0,0,0,2.426-.465,5.12,5.12,0,0,0,2.927-2.927,7.328,7.328,0,0,0,.465-2.426c.046-1.067.058-1.406.058-4.122S-393.671,33.446-393.718,32.379Zm-1.8,8.166a5.476,5.476,0,0,1-.344,1.856,3.318,3.318,0,0,1-1.9,1.9,5.532,5.532,0,0,1-1.856.343c-1.055.047-1.372.059-4.04.059s-2.989-.012-4.04-.059a5.508,5.508,0,0,1-1.856-.343,3.089,3.089,0,0,1-1.148-.747,3.109,3.109,0,0,1-.747-1.148,5.5,5.5,0,0,1-.343-1.856c-.047-1.055-.059-1.372-.059-4.04s.012-2.989.059-4.04a5.482,5.482,0,0,1,.343-1.856,3.039,3.039,0,0,1,.751-1.148,3.1,3.1,0,0,1,1.148-.747,5.532,5.532,0,0,1,1.856-.343c1.055-.047,1.371-.059,4.04-.059s2.989.012,4.04.059a5.514,5.514,0,0,1,1.856.343,3.077,3.077,0,0,1,1.148.747,3.107,3.107,0,0,1,.746,1.148,5.5,5.5,0,0,1,.344,1.856c.047,1.055.059,1.371.059,4.04S-395.472,39.49-395.519,40.545Z" fill="#252b2e"/>
    <path id="Path_23268" data-name="Path 23268" d="M-403.661,31.363A5.14,5.14,0,0,0-408.8,36.5a5.139,5.139,0,0,0,5.138,5.138,5.139,5.139,0,0,0,5.138-5.138A5.139,5.139,0,0,0-403.661,31.363Zm0,8.471a3.334,3.334,0,0,1-3.333-3.333,3.334,3.334,0,0,1,3.333-3.333,3.334,3.334,0,0,1,3.333,3.333A3.334,3.334,0,0,1-403.661,39.834Z" fill="#252b2e"/>
    <path id="Path_23269" data-name="Path 23269" d="M-397.121,31.16a1.2,1.2,0,0,1-1.2,1.2,1.2,1.2,0,0,1-1.2-1.2,1.2,1.2,0,0,1,1.2-1.2A1.2,1.2,0,0,1-397.121,31.16Z" fill="#252b2e"/>
  </g>
</svg>
