<svg xmlns="http://www.w3.org/2000/svg" xmlns:xlink="http://www.w3.org/1999/xlink" width="78" height="78" viewBox="0 0 78 78">
  <defs>
    <filter id="Path_23223" x="0" y="0" width="78" height="78" filterUnits="userSpaceOnUse">
      <feOffset dy="3" input="SourceAlpha"/>
      <feGaussianBlur stdDeviation="3" result="blur"/>
      <feFlood flood-opacity="0.161"/>
      <feComposite operator="in" in2="blur"/>
      <feComposite in="SourceGraphic"/>
    </filter>
  </defs>
  <g id="Group_8683" data-name="Group 8683" transform="translate(-200 -343)">
    <g transform="matrix(1, 0, 0, 1, 200, 343)" filter="url(#Path_23223)">
      <path id="Path_23223-2" data-name="Path 23223" d="M30,0A30,30,0,1,1,0,30,30,30,0,0,1,30,0Z" transform="translate(9 6)" fill="#f05f96" opacity="0.845"/>
    </g>
    <g id="pin" transform="translate(165 365.274)">
      <g id="Group_1370" data-name="Group 1370" transform="translate(64)">
        <g id="Group_1369" data-name="Group 1369">
          <path id="Path_23221" data-name="Path 23221" d="M74.022,0A10.032,10.032,0,0,0,64,10.022c0,6.947,9.047,16.074,9.431,16.46a.839.839,0,0,0,1.183,0c.384-.386,9.431-9.513,9.431-16.46A10.032,10.032,0,0,0,74.022,0Zm0,24.683c-1.994-2.135-8.352-9.354-8.352-14.661a8.352,8.352,0,1,1,16.7,0C82.374,15.324,76.017,22.548,74.022,24.683Z" transform="translate(-64)" fill="#fff"/>
        </g>
      </g>
      <g id="Group_1372" data-name="Group 1372" transform="translate(69.011 5.011)">
        <g id="Group_1371" data-name="Group 1371">
          <path id="Path_23222" data-name="Path 23222" d="M165.011,96a5.011,5.011,0,1,0,5.011,5.011A5.017,5.017,0,0,0,165.011,96Zm0,8.352a3.341,3.341,0,1,1,3.341-3.341A3.344,3.344,0,0,1,165.011,104.352Z" transform="translate(-160 -96)" fill="#fff"/>
        </g>
      </g>
    </g>
  </g>
</svg>
