<svg xmlns="http://www.w3.org/2000/svg" width="48.854" height="29.312" viewBox="0 0 48.854 29.312">
  <g id="mastercard" transform="translate(0 -100.8)">
    <path id="Path_1888" data-name="Path 1888" d="M230.912,115.456a14.656,14.656,0,1,1-29.312,0h0a14.656,14.656,0,1,1,29.312,0Z" transform="translate(-182.058 0)" fill="#ffb600"/>
    <path id="Path_1889" data-name="Path 1889" d="M216.256,100.8a14.694,14.694,0,0,1,14.656,14.656h0a14.656,14.656,0,1,1-29.312,0" transform="translate(-182.058)" fill="#f7981d"/>
    <path id="Path_1890" data-name="Path 1890" d="M352.8,100.8a14.694,14.694,0,0,1,14.656,14.656h0A14.644,14.644,0,0,1,352.8,130.112" transform="translate(-318.602)" fill="#ff8500"/>
    <path id="Path_1891" data-name="Path 1891" d="M14.5,100.8a14.657,14.657,0,0,0,.155,29.312,14.827,14.827,0,0,0,9.848-3.8h0a13.934,13.934,0,0,0,1.473-1.551H22.954a17.891,17.891,0,0,1-1.086-1.473h5.2a9.934,9.934,0,0,0,.853-1.551h-6.9a9.242,9.242,0,0,1-.62-1.551h8.065a15.4,15.4,0,0,0,.775-4.653,20.016,20.016,0,0,0-.31-3.1h-9a11.337,11.337,0,0,1,.388-1.551h8.065a9.243,9.243,0,0,0-.62-1.551H20.937a15.378,15.378,0,0,1,.853-1.551h5.2a7.375,7.375,0,0,0-1.163-1.551H22.954a13.217,13.217,0,0,1,1.473-1.473,14.31,14.31,0,0,0-9.848-3.8C14.579,100.8,14.579,100.8,14.5,100.8Z" fill="#ff5050"/>
    <path id="Path_1892" data-name="Path 1892" d="M0,116.9a14.644,14.644,0,0,0,14.656,14.656,14.827,14.827,0,0,0,9.848-3.8h0a13.934,13.934,0,0,0,1.473-1.551H22.954a17.891,17.891,0,0,1-1.086-1.473h5.2a9.934,9.934,0,0,0,.853-1.551h-6.9a9.242,9.242,0,0,1-.62-1.551h8.065a15.4,15.4,0,0,0,.775-4.653,20.016,20.016,0,0,0-.31-3.1h-9a11.337,11.337,0,0,1,.388-1.551h8.065a9.243,9.243,0,0,0-.62-1.551H20.937a15.378,15.378,0,0,1,.853-1.551h5.2a7.375,7.375,0,0,0-1.163-1.551H22.954a13.217,13.217,0,0,1,1.473-1.473,14.309,14.309,0,0,0-9.848-3.8H14.5" transform="translate(0 -1.445)" fill="#e52836"/>
    <path id="Path_1893" data-name="Path 1893" d="M149.755,131.557a14.827,14.827,0,0,0,9.848-3.8h0a13.935,13.935,0,0,0,1.473-1.551h-3.024a17.891,17.891,0,0,1-1.086-1.473h5.2a9.935,9.935,0,0,0,.853-1.551h-6.9a9.242,9.242,0,0,1-.62-1.551h8.065a15.4,15.4,0,0,0,.775-4.653,20.017,20.017,0,0,0-.31-3.1h-9a11.339,11.339,0,0,1,.388-1.551h8.065a9.244,9.244,0,0,0-.62-1.551h-6.824a15.376,15.376,0,0,1,.853-1.551h5.2a7.374,7.374,0,0,0-1.163-1.551h-2.869a13.214,13.214,0,0,1,1.473-1.473,14.31,14.31,0,0,0-9.848-3.8H149.6" transform="translate(-135.099 -1.445)" fill="#cb2026"/>
    <g id="Group_1394" data-name="Group 1394" transform="translate(1.396 111.656)">
      <path id="Path_1894" data-name="Path 1894" d="M183.849,226.824l.233-1.318a3.359,3.359,0,0,1-.388.078c-.543,0-.62-.31-.543-.465l.465-2.714h.853l.233-1.473h-.775l.155-.931h-1.551s-.931,5.118-.931,5.738a1.164,1.164,0,0,0,1.241,1.318A2.38,2.38,0,0,0,183.849,226.824Z" transform="translate(-165.393 -219.302)" fill="#fff"/>
      <path id="Path_1895" data-name="Path 1895" d="M210.4,232.2a2.467,2.467,0,0,0,2.714,2.714,4.026,4.026,0,0,0,1.628-.233l.31-1.473a4.649,4.649,0,0,1-1.628.388c-1.706,0-1.4-1.241-1.4-1.241h3.179a10.055,10.055,0,0,0,.233-1.4,2.1,2.1,0,0,0-2.249-2.249C211.563,228.553,210.4,230.259,210.4,232.2Zm2.714-2.249c.853,0,.7,1.008.7,1.086h-1.706C212.106,230.957,212.261,229.949,213.114,229.949Z" transform="translate(-191.401 -227.158)" fill="#fff"/>
      <path id="Path_1896" data-name="Path 1896" d="M300.265,220.322l.31-1.706a3.811,3.811,0,0,1-1.318.388c-1.086,0-1.551-.853-1.551-1.784,0-1.861.931-2.869,2.016-2.869a2.59,2.59,0,0,1,1.4.465l.233-1.628a5.452,5.452,0,0,0-1.784-.388c-1.784,0-3.567,1.551-3.567,4.5,0,1.939.931,3.257,2.792,3.257A6.959,6.959,0,0,0,300.265,220.322Z" transform="translate(-268.704 -212.8)" fill="#fff"/>
      <path id="Path_1897" data-name="Path 1897" d="M89.347,227.2a5.492,5.492,0,0,0-1.861.31l-.233,1.318a4.584,4.584,0,0,1,1.706-.31c.543,0,1.008.078,1.008.543,0,.31-.078.388-.078.388h-.7c-1.318,0-2.792.543-2.792,2.326,0,1.4.931,1.706,1.473,1.706a2.33,2.33,0,0,0,1.628-.7l-.078.62h1.4l.62-4.265A1.838,1.838,0,0,0,89.347,227.2Zm.31,3.49c0,.233-.155,1.473-1.086,1.473a.605.605,0,0,1-.62-.62c0-.388.233-.931,1.4-.931A1.223,1.223,0,0,0,89.657,230.69Z" transform="translate(-79.421 -225.804)" fill="#fff"/>
      <path id="Path_1898" data-name="Path 1898" d="M136.984,232.759a1.988,1.988,0,0,0,2.326-2.016c0-1.939-1.861-1.551-1.861-2.326,0-.388.31-.543.853-.543.233,0,1.086.078,1.086.078l.233-1.4a5.89,5.89,0,0,0-1.473-.155c-1.163,0-2.326.465-2.326,2.016,0,1.784,1.939,1.628,1.939,2.326,0,.465-.543.543-.931.543a5.071,5.071,0,0,1-1.4-.233l-.233,1.4C135.278,232.6,135.665,232.759,136.984,232.759Z" transform="translate(-123.491 -225.082)" fill="#fff"/>
      <path id="Path_1899" data-name="Path 1899" d="M431.62,214.4l-.31,2.094a2.15,2.15,0,0,0-1.473-.775c-1.4,0-2.637,1.706-2.637,3.722,0,1.241.62,2.559,1.939,2.559a2.07,2.07,0,0,0,1.473-.62l-.078.543h1.551l1.163-7.444Zm-.7,4.11c0,.853-.388,1.939-1.241,1.939-.543,0-.853-.465-.853-1.241,0-1.241.543-2.016,1.241-2.016C430.612,217.192,430.922,217.579,430.922,218.51Z" transform="translate(-387.186 -214.245)" fill="#fff"/>
      <path id="Path_1900" data-name="Path 1900" d="M15.873,221.844l.931-5.583.155,5.583h1.086l2.016-5.583-.853,5.583h1.628l1.241-7.444H19.518l-1.551,4.575L17.89,214.4H15.641L14.4,221.844Z" transform="translate(-14.4 -214.245)" fill="#fff"/>
      <path id="Path_1901" data-name="Path 1901" d="M261.706,234.849c.465-2.559.543-4.653,1.628-4.265a6.084,6.084,0,0,1,.543-1.784h-.31c-.7,0-1.241.931-1.241.931l.155-.853h-1.473L260,234.926h1.706Z" transform="translate(-236.193 -227.249)" fill="#fff"/>
      <path id="Path_1902" data-name="Path 1902" d="M349.347,227.2a5.492,5.492,0,0,0-1.861.31l-.233,1.318a4.584,4.584,0,0,1,1.706-.31c.543,0,1.008.078,1.008.543,0,.31-.078.388-.078.388h-.7c-1.318,0-2.792.543-2.792,2.326,0,1.4.931,1.706,1.473,1.706a2.33,2.33,0,0,0,1.628-.7l-.078.62h1.4l.62-4.265A1.811,1.811,0,0,0,349.347,227.2Zm.388,3.49c0,.233-.155,1.473-1.086,1.473a.605.605,0,0,1-.62-.62c0-.388.233-.931,1.4-.931C349.657,230.69,349.657,230.69,349.734,230.69Z" transform="translate(-314.218 -225.804)" fill="#fff"/>
      <path id="Path_1903" data-name="Path 1903" d="M396.106,234.849c.465-2.559.543-4.653,1.628-4.265a6.086,6.086,0,0,1,.543-1.784h-.31c-.7,0-1.241.931-1.241.931l.155-.853h-1.473l-1.008,6.049h1.706Z" transform="translate(-357.566 -227.249)" fill="#fff"/>
    </g>
    <g id="Group_1395" data-name="Group 1395" transform="translate(1.396 111.656)">
      <path id="Path_1904" data-name="Path 1904" d="M180,225.738a1.164,1.164,0,0,0,1.241,1.318,2.952,2.952,0,0,0,1.163-.233l.233-1.318a3.358,3.358,0,0,1-.388.078c-.543,0-.62-.31-.543-.465l.465-2.714h.853l.233-1.473h-.775l.155-.931" transform="translate(-163.948 -219.302)" fill="#dce5e5"/>
      <path id="Path_1905" data-name="Path 1905" d="M218.4,232.2c0,2.171.7,2.714,1.939,2.714a4.026,4.026,0,0,0,1.628-.233l.31-1.473a4.649,4.649,0,0,1-1.628.388c-1.706,0-1.4-1.241-1.4-1.241h3.179a10.055,10.055,0,0,0,.233-1.4,2.1,2.1,0,0,0-2.249-2.249C218.788,228.553,218.4,230.259,218.4,232.2Zm1.939-2.249c.853,0,1.008,1.008,1.008,1.086h-2.016C219.331,230.957,219.486,229.949,220.339,229.949Z" transform="translate(-198.626 -227.158)" fill="#dce5e5"/>
      <path id="Path_1906" data-name="Path 1906" d="M307.49,220.322l.31-1.706a3.811,3.811,0,0,1-1.318.388c-1.086,0-1.551-.853-1.551-1.784,0-1.861.931-2.869,2.016-2.869a2.59,2.59,0,0,1,1.4.465l.233-1.628a5.452,5.452,0,0,0-1.784-.388c-1.784,0-2.792,1.551-2.792,4.5,0,1.939.155,3.257,2.016,3.257A6.96,6.96,0,0,0,307.49,220.322Z" transform="translate(-275.928 -212.8)" fill="#dce5e5"/>
      <path id="Path_1907" data-name="Path 1907" d="M87.253,230.351a4.584,4.584,0,0,1,1.706-.31c.543,0,1.008.078,1.008.543,0,.31-.078.388-.078.388h-.7c-1.318,0-2.792.543-2.792,2.326,0,1.4.931,1.706,1.473,1.706a2.33,2.33,0,0,0,1.628-.7l-.078.62h1.4l.62-4.265c0-1.784-1.551-1.861-2.171-1.861m1.163,3.334a2.539,2.539,0,0,1-1.861,1.473.605.605,0,0,1-.62-.62c0-.388.233-.931,1.4-.931A6.336,6.336,0,0,0,90.432,232.134Z" transform="translate(-79.421 -227.249)" fill="#dce5e5"/>
      <path id="Path_1908" data-name="Path 1908" d="M136,232.6a6.563,6.563,0,0,0,1.784.155,1.988,1.988,0,0,0,2.326-2.016c0-1.939-1.861-1.551-1.861-2.326,0-.388.31-.543.853-.543.233,0,1.086.078,1.086.078l.233-1.4a5.89,5.89,0,0,0-1.473-.155c-1.163,0-1.551.465-1.551,2.016,0,1.784,1.163,1.628,1.163,2.326,0,.465-.543.543-.931.543" transform="translate(-124.213 -225.082)" fill="#dce5e5"/>
      <path id="Path_1909" data-name="Path 1909" d="M438.482,217.216a2.15,2.15,0,0,0-1.473-.775c-1.4,0-1.861,1.706-1.861,3.722,0,1.241-.155,2.559,1.163,2.559a2.07,2.07,0,0,0,1.473-.62l-.078.543h1.551l1.163-7.444m-2.016,4.032c0,.853-.7,1.939-1.551,1.939-.543,0-.853-.465-.853-1.241,0-1.241.543-2.016,1.241-2.016A1.185,1.185,0,0,1,438.4,219.232Z" transform="translate(-394.358 -214.967)" fill="#dce5e5"/>
      <path id="Path_1910" data-name="Path 1910" d="M15.873,221.844l.931-5.583.155,5.583h1.086l2.016-5.583-.853,5.583h1.628l1.241-7.444H20.138l-2.171,4.575L17.89,214.4h-.853L14.4,221.844Z" transform="translate(-14.4 -214.245)" fill="#dce5e5"/>
      <path id="Path_1911" data-name="Path 1911" d="M260.8,234.849h1.628c.465-2.559.543-4.653,1.628-4.265a6.085,6.085,0,0,1,.543-1.784h-.31c-.7,0-1.241.931-1.241.931l.155-.853" transform="translate(-236.916 -227.249)" fill="#dce5e5"/>
      <path id="Path_1912" data-name="Path 1912" d="M347.253,230.351a4.584,4.584,0,0,1,1.706-.31c.543,0,1.008.078,1.008.543,0,.31-.078.388-.078.388h-.7c-1.318,0-2.792.543-2.792,2.326,0,1.4.931,1.706,1.473,1.706a2.33,2.33,0,0,0,1.628-.7l-.078.62h1.4l.62-4.265c0-1.784-1.551-1.861-2.171-1.861m1.163,3.334a2.539,2.539,0,0,1-1.861,1.473.605.605,0,0,1-.62-.62c0-.388.233-.931,1.4-.931A6.822,6.822,0,0,0,350.432,232.134Z" transform="translate(-314.218 -227.249)" fill="#dce5e5"/>
      <path id="Path_1913" data-name="Path 1913" d="M395.2,234.849h1.628c.465-2.559.543-4.653,1.628-4.265A6.088,6.088,0,0,1,399,228.8h-.31c-.7,0-1.241.931-1.241.931l.155-.853" transform="translate(-358.288 -227.249)" fill="#dce5e5"/>
    </g>
  </g>
</svg>
