<svg xmlns="http://www.w3.org/2000/svg" width="12.669" height="20.251" viewBox="0 0 12.669 20.251">
  <g id="Group_1469" data-name="Group 1469" transform="translate(-438.554 -264.5)">
    <path id="Path_618" data-name="Path 618" d="M443.147,280.157a.456.456,0,0,0,.325-.134l3.264-3.264a.46.46,0,0,0,0-.648.47.47,0,0,0-.649,0l-3.265,3.264a.458.458,0,0,0,.325.782Z" fill="#333"/>
    <path id="Path_619" data-name="Path 619" d="M450.765,281.792a.459.459,0,0,0,.458-.459V270.281a1.457,1.457,0,0,0-.492-1.091l-4.876-4.322a1.456,1.456,0,0,0-1.934,0l-4.876,4.323a1.456,1.456,0,0,0-.491,1.091v13.011a1.461,1.461,0,0,0,1.459,1.459h9.752a1.461,1.461,0,0,0,1.458-1.459.458.458,0,0,0-.917,0,.543.543,0,0,1-.541.542h-9.752a.542.542,0,0,1-.542-.542V270.281a.542.542,0,0,1,.182-.4l4.876-4.323a.543.543,0,0,1,.719,0l4.875,4.323a.54.54,0,0,1,.183.4v11.052A.46.46,0,0,0,450.765,281.792Z" fill="#333"/>
    <path id="Path_620" data-name="Path 620" d="M444.889,268.415a.5.5,0,0,1,.5.5.458.458,0,0,0,.917,0,1.417,1.417,0,1,0-1.417,1.416.458.458,0,0,0,0-.916.5.5,0,1,1,0-1Z" fill="#333"/>
    <path id="Path_621" data-name="Path 621" d="M442.472,276.326a.785.785,0,1,0,.784-.785A.785.785,0,0,0,442.472,276.326Z" fill="#333"/>
    <circle id="Ellipse_15" data-name="Ellipse 15" cx="0.785" cy="0.785" r="0.785" transform="translate(445.736 278.805)" fill="#333"/>
  </g>
</svg>
