<svg xmlns="http://www.w3.org/2000/svg" width="33.285" height="17.364" viewBox="0 0 33.285 17.364">
  <g id="clothes-hanger" transform="translate(0 -104.024)">
    <path id="Path_2521" data-name="Path 2521" d="M33.248,120.45c-.42-1.594-1.7-1.577-5.608-3.421A24.233,24.233,0,0,1,20.28,111.2a2.871,2.871,0,0,0-2.256-1.065h-.855l0-1.536a1.838,1.838,0,0,1,.358-.251,2.266,2.266,0,1,0-3.22-2.043.6.6,0,1,0,1.2,0,1.076,1.076,0,1,1,2.152,0c0,.529-.275.722-.759,1.018a1.479,1.479,0,0,0-.917,1.22v1.593h-.725a2.993,2.993,0,0,0-2.255,1.065,24.246,24.246,0,0,1-7.361,5.831c-3.908,1.844-5.188,1.825-5.61,3.422-.195.738.4,1.139,1.1.834A73,73,0,0,0,14.42,113.7a3.875,3.875,0,0,1,2.145-.881h.156a3.871,3.871,0,0,1,2.145.881,73.031,73.031,0,0,0,13.285,7.589C32.849,121.588,33.442,121.187,33.248,120.45Z" transform="translate(0 0)" fill="#292f33"/>
  </g>
</svg>
