<svg xmlns="http://www.w3.org/2000/svg" width="23.437" height="29.652" viewBox="0 0 23.437 29.652">
  <g id="Group_1528" data-name="Group 1528" transform="translate(50.406 -41.728)">
    <path id="Path_2527" data-name="Path 2527" d="M-28.99,45.22h-3.959V42.647a.92.92,0,0,0-.936-.919.138.138,0,0,0-.1.034.126.126,0,0,0-.067-.034H-43.49a.906.906,0,0,0-.919.919V45.22h-3.976a2,2,0,0,0-2.021,2.021v3.308h1.754V69.375a1.969,1.969,0,0,0,2.005,2h15.919a1.984,1.984,0,0,0,2.022-2V50.549h1.737V47.241A2,2,0,0,0-28.99,45.22Zm-13.581-1.654H-34.8V45.22h-7.767Zm12.01,25.809c0,.117-.05.167-.167.167H-46.647c-.117,0-.167-.05-.167-.167V50.549h16.253Zm1.738-20.664H-48.552v-1.47c0-.117.05-.184.167-.184H-28.99c.117,0,.167.067.167.184Z" fill="#fff"/>
    <rect id="Rectangle_2656" data-name="Rectangle 2656" width="1.854" height="15.201" transform="translate(-35.321 52.704)" fill="#fff"/>
    <rect id="Rectangle_2657" data-name="Rectangle 2657" width="1.854" height="15.201" transform="translate(-39.598 52.704)" fill="#fff"/>
    <rect id="Rectangle_2658" data-name="Rectangle 2658" width="1.854" height="15.201" transform="translate(-43.874 52.704)" fill="#fff"/>
  </g>
</svg>
