<svg xmlns="http://www.w3.org/2000/svg" width="50" height="15.159" viewBox="0 0 50 15.159">
  <g id="visa" transform="translate(0 -175.6)">
    <path id="Path_1914" data-name="Path 1914" d="M184.8,194.686l2.54-14.286h3.968l-2.46,14.286Z" transform="translate(-166.467 -4.324)" fill="#3c58bf"/>
    <path id="Path_1915" data-name="Path 1915" d="M184.8,194.686l3.254-14.286h3.254l-2.46,14.286Z" transform="translate(-166.467 -4.324)" fill="#293688"/>
    <path id="Path_1916" data-name="Path 1916" d="M260.143,176.235a10.066,10.066,0,0,0-3.651-.635c-3.968,0-6.825,1.984-6.825,4.841,0,2.143,1.984,3.254,3.571,3.968s2.064,1.19,2.064,1.825c0,.952-1.27,1.429-2.381,1.429a8.626,8.626,0,0,1-3.81-.794l-.556-.238L248,189.886a12.868,12.868,0,0,0,4.524.794c4.206,0,6.984-1.984,6.984-5,0-1.667-1.032-2.937-3.413-3.968-1.429-.714-2.3-1.111-2.3-1.825,0-.635.714-1.27,2.3-1.27a7.279,7.279,0,0,1,3.016.556l.4.159.635-3.1Z" transform="translate(-223.397)" fill="#3c58bf"/>
    <path id="Path_1917" data-name="Path 1917" d="M260.143,176.235a10.066,10.066,0,0,0-3.651-.635c-3.968,0-6.111,1.984-6.111,4.841a4.149,4.149,0,0,0,2.857,3.968c1.587.714,2.064,1.19,2.064,1.825,0,.952-1.27,1.429-2.381,1.429a8.626,8.626,0,0,1-3.81-.794l-.556-.238L248,189.886a12.868,12.868,0,0,0,4.524.794c4.206,0,6.984-1.984,6.984-5,0-1.667-1.032-2.937-3.413-3.968-1.429-.714-2.3-1.111-2.3-1.825,0-.635.714-1.27,2.3-1.27a7.279,7.279,0,0,1,3.016.556l.4.159.635-3.1Z" transform="translate(-223.397)" fill="#293688"/>
    <path id="Path_1918" data-name="Path 1918" d="M366.416,180.4c-.952,0-1.667.079-2.063,1.032L358.4,194.686h4.286l.794-2.381h5.079l.476,2.381h3.81L369.511,180.4Zm-1.825,9.524c.238-.714,1.587-4.206,1.587-4.206s.317-.873.556-1.429l.238,1.349s.794,3.571.952,4.365H364.59Z" transform="translate(-322.844 -4.324)" fill="#3c58bf"/>
    <path id="Path_1919" data-name="Path 1919" d="M367.368,180.4c-.952,0-1.667.079-2.063,1.032l-6.9,13.254h4.286l.794-2.381h5.079l.476,2.381h3.81L369.511,180.4Zm-2.778,9.524c.318-.794,1.587-4.206,1.587-4.206s.317-.873.556-1.429l.238,1.349s.794,3.571.952,4.365H364.59Z" transform="translate(-322.844 -4.324)" fill="#293688"/>
    <path id="Path_1920" data-name="Path 1920" d="M57.152,191.121l-.4-2.063a11.5,11.5,0,0,0-5.556-6.27l3.571,12.7h4.286L65.486,181.2H61.2Z" transform="translate(-46.121 -5.044)" fill="#3c58bf"/>
    <path id="Path_1921" data-name="Path 1921" d="M57.152,191.121l-.4-2.063a11.5,11.5,0,0,0-5.556-6.27l3.571,12.7h4.286L65.486,181.2H61.994Z" transform="translate(-46.121 -5.044)" fill="#293688"/>
    <path id="Path_1922" data-name="Path 1922" d="M0,180.4l.714.159c5.079,1.19,8.571,4.206,9.921,7.778L9.206,181.59c-.238-.952-.952-1.19-1.825-1.19Z" transform="translate(0 -4.324)" fill="#ffbc00"/>
    <path id="Path_1923" data-name="Path 1923" d="M0,180.4H0c5.079,1.19,9.286,4.286,10.635,7.857l-1.349-5.635a1.937,1.937,0,0,0-1.9-1.508Z" transform="translate(0 -4.324)" fill="#f7981d"/>
    <path id="Path_1924" data-name="Path 1924" d="M0,180.4H0c5.079,1.19,9.286,4.286,10.635,7.857l-.952-3.1a2.8,2.8,0,0,0-1.667-2.3Z" transform="translate(0 -4.324)" fill="#ed7c00"/>
    <g id="Group_1396" data-name="Group 1396" transform="translate(5.159 177.663)">
      <path id="Path_1925" data-name="Path 1925" d="M61.841,204.337l-2.7-2.7-1.27,3.016-.317-1.984A11.5,11.5,0,0,0,52,196.4l3.571,12.7h4.286Z" transform="translate(-52 -196.4)" fill="#051244"/>
      <path id="Path_1926" data-name="Path 1926" d="M188.848,292.692l-3.413-3.492-.635,3.492Z" transform="translate(-171.625 -279.994)" fill="#051244"/>
      <path id="Path_1927" data-name="Path 1927" d="M254.9,274.8h0c.317.317.476.556.4.873,0,.952-1.27,1.429-2.381,1.429a8.627,8.627,0,0,1-3.81-.794l-.556-.238L248,279.324a12.868,12.868,0,0,0,4.524.794c2.54,0,4.6-.714,5.794-1.984Z" transform="translate(-228.556 -267.022)" fill="#051244"/>
      <path id="Path_1928" data-name="Path 1928" d="M364,230h3.73l.794-2.381H373.6l.476,2.381h3.81L376.54,224.2l-4.762-4.6.238,1.27s.794,3.571.952,4.365h-3.333c.317-.794,1.587-4.206,1.587-4.206s.317-.873.556-1.429" transform="translate(-333.048 -217.298)" fill="#051244"/>
    </g>
  </g>
</svg>
