<svg xmlns="http://www.w3.org/2000/svg" width="20.582" height="18.005" viewBox="0 0 20.582 18.005">
  <g id="Group_1470" data-name="Group 1470" transform="translate(241.145 -341.25)">
    <path id="Path_622" data-name="Path 622" d="M-227.333,344.579a.411.411,0,0,0-.227.068,3.631,3.631,0,0,0-.588.484.415.415,0,0,0,.006.584.425.425,0,0,0,.585-.006,2.743,2.743,0,0,1,.451-.371.414.414,0,0,0,.179-.262.413.413,0,0,0-.06-.311A.414.414,0,0,0-227.333,344.579Z" transform="translate(-0.988 -0.255)" fill="#333"/>
    <path id="Path_623" data-name="Path 623" d="M-225.992,352.29a.417.417,0,0,0,.125.292.421.421,0,0,0,.584-.006l2.262-2.3a3.708,3.708,0,0,0,0-5.166,3.486,3.486,0,0,0-1.258-.826.4.4,0,0,0-.146-.027.415.415,0,0,0-.169.036.411.411,0,0,0-.218.231.409.409,0,0,0,.009.315.414.414,0,0,0,.231.218,2.654,2.654,0,0,1,.96.632,2.875,2.875,0,0,1,0,4.008l-2.26,2.3A.41.41,0,0,0-225.992,352.29Z" transform="translate(-1.162 -0.23)" fill="#333"/>
    <path id="Path_624" data-name="Path 624" d="M-226.659,341.25a6.026,6.026,0,0,0-4.041,1.558l-.154.139-.154-.139a6.026,6.026,0,0,0-4.041-1.558,6,6,0,0,0-4.316,1.822,6.3,6.3,0,0,0,0,8.774l6.392,6.514a2.947,2.947,0,0,0,2.119.895,2.947,2.947,0,0,0,2.119-.895l6.393-6.515a6.3,6.3,0,0,0,0-8.773A6,6,0,0,0-226.659,341.25Zm3.725,10.017-6.392,6.515a2.126,2.126,0,0,1-1.528.646,2.13,2.13,0,0,1-1.529-.646l-6.39-6.515a5.463,5.463,0,0,1,0-7.617,5.187,5.187,0,0,1,3.725-1.573,5.191,5.191,0,0,1,3.726,1.573l.152.163a.436.436,0,0,0,.648-.013.689.689,0,0,0,.077-.081l.062-.068a5.192,5.192,0,0,1,3.726-1.574,5.184,5.184,0,0,1,3.725,1.574h0A5.465,5.465,0,0,1-222.935,351.267Z" fill="#333"/>
  </g>
</svg>
